<svg width="25" height="24" viewBox="0 0 25 24" fill="none" xmlns="http://www.w3.org/2000/svg">
<g id="Group 9">
<circle id="Oval" cx="12" cy="12" r="12" fill="#6C70DC"/>
<path id="Path" fill-rule="evenodd" clip-rule="evenodd" d="M16.6242 8.45643L16.3564 8.24248C15.912 7.88725 15.2441 7.92685 14.8517 8.33156L10.3723 12.9509L9.02021 11.8678C8.57621 11.5122 7.90821 11.551 7.51534 11.9553L7.27859 12.1989C7.08659 12.3964 6.98691 12.6569 7.00138 12.9229C7.016 13.1889 7.14356 13.4385 7.35621 13.617L9.83469 15.7279C10.0493 15.9154 10.3369 16.0131 10.6308 15.9986C10.9247 15.9841 11.1996 15.8585 11.3916 15.651L16.7388 9.87248C16.9256 9.67059 17.0185 9.40797 16.9969 9.14244C16.9754 8.87671 16.8414 8.62999 16.6242 8.45643Z" fill="white"/>
</g>
</svg>
